<?xml version="1.0" encoding="UTF-8" standalone="no"?>
<!DOCTYPE svg PUBLIC "-//W3C//DTD SVG 1.1//EN"
 "http://www.w3.org/Graphics/SVG/1.1/DTD/svg11.dtd">
<!-- Generated by graphviz version 2.40.1 (20161225.0304)
 -->
<!-- Title: G Pages: 1 -->
<svg width="378pt" height="302pt"
 viewBox="0.00 0.00 378.00 302.00" xmlns="http://www.w3.org/2000/svg" xmlns:xlink="http://www.w3.org/1999/xlink">
<g id="graph0" class="graph" transform="scale(1 1) rotate(0) translate(4 298)">
<title>G</title>
<polygon fill="#ffffff" stroke="transparent" points="-4,4 -4,-298 374,-298 374,4 -4,4"/>
<!-- 0 -->
<g id="node1" class="node">
<title>0</title>
<text text-anchor="middle" x="182" y="-271.8" font-family="Times,serif" font-size="14.00" fill="#000000">0 (None)</text>
</g>
<!-- 2 -->
<g id="node2" class="node">
<title>2</title>
<text text-anchor="middle" x="182" y="-185.8" font-family="Times,serif" font-size="14.00" fill="#000000">2 (put)</text>
</g>
<!-- 0&#45;&gt;2 -->
<g id="edge1" class="edge">
<title>0&#45;&gt;2</title>
<path fill="none" stroke="#000000" d="M182,-257.7616C182,-246.3597 182,-231.4342 182,-218.494"/>
<polygon fill="#000000" stroke="#000000" points="185.5001,-218.2121 182,-208.2121 178.5001,-218.2121 185.5001,-218.2121"/>
<text text-anchor="middle" x="201.0552" y="-228.8" font-family="Times,serif" font-size="14.00" fill="#000000">ROOT</text>
</g>
<!-- 1 -->
<g id="node3" class="node">
<title>1</title>
<text text-anchor="middle" x="27" y="-99.8" font-family="Times,serif" font-size="14.00" fill="#000000">1 (I)</text>
</g>
<!-- 2&#45;&gt;1 -->
<g id="edge2" class="edge">
<title>2&#45;&gt;1</title>
<path fill="none" stroke="#000000" d="M154.7076,-178.3885C139.6931,-171.7303 120.8743,-162.9377 104.6621,-154 90.1473,-145.9981 74.6933,-136.307 61.4245,-127.5953"/>
<polygon fill="#000000" stroke="#000000" points="63.32,-124.6526 53.0525,-122.0394 59.4494,-130.4851 63.32,-124.6526"/>
<text text-anchor="middle" x="120.1689" y="-142.8" font-family="Times,serif" font-size="14.00" fill="#000000">nsubj</text>
</g>
<!-- 4 -->
<g id="node4" class="node">
<title>4</title>
<text text-anchor="middle" x="104" y="-99.8" font-family="Times,serif" font-size="14.00" fill="#000000">4 (book)</text>
</g>
<!-- 2&#45;&gt;4 -->
<g id="edge3" class="edge">
<title>2&#45;&gt;4</title>
<path fill="none" stroke="#000000" d="M165.4582,-171.7616C154.393,-159.5615 139.669,-143.3273 127.4069,-129.8076"/>
<polygon fill="#000000" stroke="#000000" points="129.8287,-127.268 120.5179,-122.2121 124.6436,-131.9707 129.8287,-127.268"/>
<text text-anchor="middle" x="160.4448" y="-142.8" font-family="Times,serif" font-size="14.00" fill="#000000">dobj</text>
</g>
<!-- 7 -->
<g id="node5" class="node">
<title>7</title>
<text text-anchor="middle" x="182" y="-99.8" font-family="Times,serif" font-size="14.00" fill="#000000">7 (box)</text>
</g>
<!-- 2&#45;&gt;7 -->
<g id="edge4" class="edge">
<title>2&#45;&gt;7</title>
<path fill="none" stroke="#000000" d="M182,-171.7616C182,-160.3597 182,-145.4342 182,-132.494"/>
<polygon fill="#000000" stroke="#000000" points="185.5001,-132.2121 182,-122.2121 178.5001,-132.2121 185.5001,-132.2121"/>
<text text-anchor="middle" x="197.9448" y="-142.8" font-family="Times,serif" font-size="14.00" fill="#000000">nmod</text>
</g>
<!-- 10 -->
<g id="node6" class="node">
<title>10</title>
<text text-anchor="middle" x="263" y="-99.8" font-family="Times,serif" font-size="14.00" fill="#000000">10 (table)</text>
</g>
<!-- 2&#45;&gt;10 -->
<g id="edge5" class="edge">
<title>2&#45;&gt;10</title>
<path fill="none" stroke="#000000" d="M200.5027,-171.8695C206.1796,-166.2077 212.4031,-159.8992 218,-154 225.3548,-146.248 233.2008,-137.6499 240.2473,-129.8009"/>
<polygon fill="#000000" stroke="#000000" points="242.9302,-132.0512 246.9796,-122.2607 237.7086,-127.3891 242.9302,-132.0512"/>
<text text-anchor="middle" x="246.9448" y="-142.8" font-family="Times,serif" font-size="14.00" fill="#000000">nmod</text>
</g>
<!-- 11 -->
<g id="node7" class="node">
<title>11</title>
<text text-anchor="middle" x="343" y="-99.8" font-family="Times,serif" font-size="14.00" fill="#000000">11 (.)</text>
</g>
<!-- 2&#45;&gt;11 -->
<g id="edge6" class="edge">
<title>2&#45;&gt;11</title>
<path fill="none" stroke="#000000" d="M209.3798,-179.8675C226.3316,-173.2388 248.3476,-163.9793 267,-154 281.3699,-146.3119 296.5032,-136.6981 309.4499,-127.96"/>
<polygon fill="#000000" stroke="#000000" points="311.7549,-130.6235 318.0273,-122.0849 307.7992,-124.8484 311.7549,-130.6235"/>
<text text-anchor="middle" x="306.5518" y="-142.8" font-family="Times,serif" font-size="14.00" fill="#000000">punct</text>
</g>
<!-- 3 -->
<g id="node8" class="node">
<title>3</title>
<text text-anchor="middle" x="47" y="-13.8" font-family="Times,serif" font-size="14.00" fill="#000000">3 (the)</text>
</g>
<!-- 4&#45;&gt;3 -->
<g id="edge7" class="edge">
<title>4&#45;&gt;3</title>
<path fill="none" stroke="#000000" d="M91.7094,-85.7049C87.9124,-80.0364 83.7231,-73.7655 79.8965,-68 74.8578,-60.4085 69.4113,-52.1513 64.4276,-44.5751"/>
<polygon fill="#000000" stroke="#000000" points="67.2585,-42.5099 58.8417,-36.0749 61.4085,-46.3541 67.2585,-42.5099"/>
<text text-anchor="middle" x="88.5518" y="-56.8" font-family="Times,serif" font-size="14.00" fill="#000000">det</text>
</g>
<!-- 5 -->
<g id="node9" class="node">
<title>5</title>
<text text-anchor="middle" x="119" y="-13.8" font-family="Times,serif" font-size="14.00" fill="#000000">5 (in)</text>
</g>
<!-- 7&#45;&gt;5 -->
<g id="edge8" class="edge">
<title>7&#45;&gt;5</title>
<path fill="none" stroke="#000000" d="M168.6393,-85.7616C159.8691,-73.7896 148.2531,-57.9328 138.463,-44.5685"/>
<polygon fill="#000000" stroke="#000000" points="141.0745,-42.2108 132.3414,-36.2121 135.4276,-46.3475 141.0745,-42.2108"/>
<text text-anchor="middle" x="167.0449" y="-56.8" font-family="Times,serif" font-size="14.00" fill="#000000">case</text>
</g>
<!-- 6 -->
<g id="node10" class="node">
<title>6</title>
<text text-anchor="middle" x="191" y="-13.8" font-family="Times,serif" font-size="14.00" fill="#000000">6 (the)</text>
</g>
<!-- 7&#45;&gt;6 -->
<g id="edge9" class="edge">
<title>7&#45;&gt;6</title>
<path fill="none" stroke="#000000" d="M183.9087,-85.7616C185.1019,-74.3597 186.6639,-59.4342 188.0181,-46.494"/>
<polygon fill="#000000" stroke="#000000" points="191.5342,-46.5221 189.0941,-36.2121 184.5722,-45.7935 191.5342,-46.5221"/>
<text text-anchor="middle" x="196.5518" y="-56.8" font-family="Times,serif" font-size="14.00" fill="#000000">det</text>
</g>
<!-- 8 -->
<g id="node11" class="node">
<title>8</title>
<text text-anchor="middle" x="263" y="-13.8" font-family="Times,serif" font-size="14.00" fill="#000000">8 (on)</text>
</g>
<!-- 10&#45;&gt;8 -->
<g id="edge10" class="edge">
<title>10&#45;&gt;8</title>
<path fill="none" stroke="#000000" d="M263,-85.7616C263,-74.3597 263,-59.4342 263,-46.494"/>
<polygon fill="#000000" stroke="#000000" points="266.5001,-46.2121 263,-36.2121 259.5001,-46.2121 266.5001,-46.2121"/>
<text text-anchor="middle" x="275.0449" y="-56.8" font-family="Times,serif" font-size="14.00" fill="#000000">case</text>
</g>
<!-- 9 -->
<g id="node12" class="node">
<title>9</title>
<text text-anchor="middle" x="335" y="-13.8" font-family="Times,serif" font-size="14.00" fill="#000000">9 (the)</text>
</g>
<!-- 10&#45;&gt;9 -->
<g id="edge11" class="edge">
<title>10&#45;&gt;9</title>
<path fill="none" stroke="#000000" d="M278.2693,-85.7616C288.3879,-73.6756 301.821,-57.6304 313.0757,-44.1874"/>
<polygon fill="#000000" stroke="#000000" points="316.0169,-46.1265 319.7527,-36.2121 310.6496,-41.6329 316.0169,-46.1265"/>
<text text-anchor="middle" x="312.5518" y="-56.8" font-family="Times,serif" font-size="14.00" fill="#000000">det</text>
</g>
</g>
</svg>